<?xml version="1.0" encoding="UTF-8"?>
<svg width="896px" height="266px" viewBox="0 0 896 266" version="1.1" xmlns="http://www.w3.org/2000/svg" xmlns:xlink="http://www.w3.org/1999/xlink">
    <!-- Generator: Sketch 57.1 (83088) - https://sketch.com -->
    <title>Logos / SeamlessMe / White</title>
    <desc>Created with Sketch.</desc>
    <g id="Logos-/-SeamlessMe-/-White" stroke="none" stroke-width="1" fill="none" fill-rule="evenodd">
        <g id="Seamless-Logo" fill-rule="nonzero">
            <g id="Group">
                <path d="M0,199 C99.47,165.79 132.63,0 198.94,0 C281.84,0 281.07,265.26 364.73,265.26 C413.19,265.26 453.38,149.26 497.36,149.26 C530.52,149.26 530.52,182.42 563.68,199" id="Path" fill="#82C9C2" style="mix-blend-mode: multiply;"></path>
                <path d="M552.62,199 C520.99,184.77 511.47,161.69 480.11,162.1 C427.8,162.8 379.63,248.73 331.57,248.73 C261.52,248.73 252.37,64.73 180.12,63.05 C126.61,61.77 93,172.93 11.05,199" id="Path" fill="#AC86D6" opacity="0.866666663" style="mix-blend-mode: multiply;"></path>
                <path d="M541.57,199 C511.47,187.12 492.42,174.21 462.85,175 C402.22,176.53 346.08,232.2 298.42,232.2 C242,232.1 222.9,129.51 161.29,126 C120.6,123.69 86.55,180.07 22.1,199" id="Path" fill="#D543EB" opacity="0.733333337" style="mix-blend-mode: multiply;"></path>
                <path d="M530.52,199 C431.05,165.84 331.57,215.57 265.26,215.57 C198.95,215.57 165.79,165.79 33.16,199" id="Path" fill="#FF00FF" opacity="0.6" style="mix-blend-mode: multiply;"></path>
            </g>
            <path d="M619.56,65.38 C635.56,65.38 645.75,77.6 645.75,94.32 L645.75,97.08 L604.75,97.08 C605.63,105.08 611.68,111.71 621.7,111.71 C626.87,111.71 633.03,109.62 636.78,105.88 L642.06,113.48 C636.78,118.54 628.96,121.18 620.49,121.18 C604.49,121.18 592.639834,110.06 592.639834,93.18 C592.59,77.82 603.82,65.38 619.56,65.38 Z M389.69,65.38 C405.64,65.38 415.88,77.6 415.88,94.32 L415.88,97.08 L374.83,97.08 C375.71,105.08 381.76,111.71 391.78,111.71 C396.95,111.71 403.11,109.62 406.86,105.88 L412.14,113.48 C406.86,118.54 399.04,121.18 390.57,121.18 C374.57,121.18 362.72,110.06 362.72,93.18 C362.72,77.82 374,65.38 389.69,65.38 Z M355,72.86 L350.13,81 C346.94,77.37 341,74.61 334.4,74.61 C328.34,74.61 324.49,76.81 324.49,80.56 C324.49,84.63 329.77,86.06 336.05,87.49 C345.29,89.49 356.63,92.11 356.63,104.66 C356.63,114.02 348.81,121.17 334.51,121.17 C325.51,121.17 317.23,118.31 311.72,112.91 L317,104.56 C321.903178,109.17197 328.331032,111.819989 335.06,112 C341.99,112 345.51,109.47 345.51,105.51 C345.51,100.89 339.9,99.24 333.4,97.81 C324.27,95.81 313.4,93.4 313.4,81.52 C313.4,72.82 320.89,65.34 334.32,65.34 C341.910206,65.1782874 349.286562,67.8605987 355,72.86 Z M693.58,72.86 L688.76,81 C685.57,77.37 679.62,74.61 673.02,74.61 C667.02,74.61 663.11,76.81 663.11,80.56 C663.11,84.63 668.4,86.06 674.67,87.49 C683.92,89.49 695.25,92.11 695.25,104.66 C695.25,114.02 687.44,121.17 673.13,121.17 C664.13,121.17 655.85,118.31 650.35,112.91 L655.63,104.56 C660.512887,109.171417 666.91697,111.832669 673.63,112.04 C680.56,112.04 684.09,109.51 684.09,105.55 C684.09,100.93 678.47,99.28 671.98,97.85 C662.84,95.85 651.98,93.44 651.98,81.56 C651.98,72.86 659.46,65.38 672.89,65.38 C680.478656,65.2027972 687.859062,67.8710154 693.58,72.86 Z M743.67,72.82 L738.8,81 C735.61,77.37 729.66,74.61 723.06,74.61 C717.06,74.61 713.15,76.81 713.15,80.56 C713.15,84.63 718.44,86.06 724.71,87.49 C733.96,89.49 745.29,92.11 745.29,104.66 C745.29,114.02 737.48,121.17 723.17,121.17 C714.17,121.17 705.89,118.31 700.39,112.91 L705.67,104.56 C710.571655,109.168111 716.994902,111.815699 723.72,112 C730.65,112 734.18,109.47 734.18,105.51 C734.18,100.89 728.56,99.24 722.07,97.81 C712.93,95.81 702.07,93.4 702.07,81.52 C702.07,72.82 709.55,65.34 722.98,65.34 C730.568656,65.1627972 737.949062,67.8310154 743.67,72.82 Z M447.2,65.42 C458.98,65.42 469.32,70.42 469.32,84.68 L469.32,119.9 L457.77,119.9 L457.77,114.14 C453.77,118.65 447.64,121.14 440.6,121.14 C431.9,121.14 422.11,115.31 422.11,103.53 C422.11,91.31 431.9,86.25 440.6,86.25 C447.75,86.25 453.91,88.56 457.77,93.07 L457.77,85.19 C457.77,79.03 452.7,75.28 445.33,75.28 C439.39,75.28 434.21,77.49 429.59,82 L424.86,74 C430.893867,68.3218416 438.91647,65.2406449 447.2,65.42 Z M543.32,65.42 C553.12,65.42 558.62,70.7 558.62,81.49 L558.62,119.9 L547.07,119.9 L547.07,85.19 C547.07,79.47 544.53,75.61 538.37,75.61 C533.2,75.61 528.37,79.25 526.04,82.61 L526.04,119.81 L514.49,119.81 L514.49,85.19 C514.49,79.47 511.96,75.61 505.68,75.61 C500.62,75.61 495.89,79.25 493.47,82.77 L493.47,119.86 L481.91,119.86 L481.91,66.7 L493.47,66.7 L493.47,74 C495.67,70.7 502.71,65.42 510.75,65.42 C518.79,65.42 523.51,69.42 525.27,75.21 C529.367898,69.2401802 536.081251,65.5989761 543.32,65.42 Z M582.93,46.45 L582.93,119.86 L571.37,119.86 L571.37,46.45 L582.93,46.45 Z M445.11,94.21 C438.61,94.21 433.77,97.96 433.77,103.79 C433.77,109.62 438.61,113.26 445.11,113.26 C450.17,113.26 455.11,111.38 457.77,107.75 L457.77,99.72 C455.12,96.09 450.17,94.21 445.11,94.21 Z M619.49,74.84 C609.65,74.84 605.14,82.44 604.59,88.93 L634.49,88.93 C634.27,82.66 629.98,74.84 619.49,74.84 Z M389.62,74.84 C379.78,74.84 375.27,82.44 374.72,88.93 L404.62,88.93 C404.4,82.66 400.11,74.84 389.62,74.84 Z" id="Combined-Shape" fill="#FFFFFF"></path>
            <path d="M824.09,83.76 C824.09,77.05 821.09,72.76 814.3,72.76 C808.79,72.76 802.96,76.76 800.21,80.91 L800.21,119.91 L792,119.91 L792,83.76 C792,77.05 789.14,72.76 782.21,72.76 C776.82,72.76 771.09,76.76 768.21,81.02 L768.21,119.87 L759.96,119.87 L759.96,66.7 L768.21,66.7 L768.21,74.4 C770.41,70.99 777.57,65.4 785.38,65.4 C793.53,65.4 798.15,69.8 799.69,75.3 C802.69,70.46 809.81,65.4 817.52,65.4 C827.2,65.4 832.38,70.79 832.38,81.47 L832.38,119.88 L824.12,119.88 L824.09,83.76 Z" id="Path" fill="#82C9C2"></path>
            <path d="M869.81,65.38 C885.88,65.38 895.34,77.93 895.34,93.88 L895.34,96 L852.34,96 C853,106 860.04,114.38 871.49,114.38 C877.629079,114.39102 883.523791,111.975626 887.89,107.66 L891.89,113.06 C886.61,118.34 879.45,121.2 870.76,121.2 C855.02,121.2 843.679668,109.86 843.679668,93.2 C843.61,77.82 854.62,65.38 869.81,65.38 Z M852.31,89.92 L887.2,89.92 C887.09,82 881.8,72.2 869.7,72.2 C858.36,72.2 852.75,81.78 852.31,89.92 L852.31,89.92 Z" id="Shape" fill="#82C9C2"></path>
        </g>
    </g>
</svg>