<?xml version="1.0" encoding="UTF-8"?>
<svg width="114px" height="114px" viewBox="0 0 114 114" version="1.1" xmlns="http://www.w3.org/2000/svg" xmlns:xlink="http://www.w3.org/1999/xlink">
    <title>Nexenio GmbH</title>
    <g id="Symbol-Nexenio" stroke="none" stroke-width="1" fill="none" fill-rule="evenodd">
        <path d="M60.2184,71.9278 C62.625839,72.8855307 64.8953621,74.1588714 66.9674,75.7144 C69.6612,77.6005 72.112,79.9551 74.6401,82.0529 C76.3718,83.4898 84.1271,90.8615 87.2645,92.7877 C90.1977109,94.6001438 93.879014,94.6950299 96.9017,93.0361 C98.8832102,91.9623969 100.321949,90.1050099 100.8662,87.918 C101.252052,89.4634608 101.208554,91.0849487 100.7404,92.6075 C99.8412097,95.5902836 97.7808997,98.0864956 95.0227,99.5349 C90.9208,101.836 86.1652,101.4949 82.0196,99.6155 C79.2759203,98.34918 76.6962811,96.7541569 74.3374,94.8655 C73.1086,93.8831 71.6525,92.7134 70.4389,91.7124 C67.2819,89.1084 64.0673,86.4619 60.9552,83.8043 C60.9508,83.7995 57.8116,81.2189 57.8116,81.2189 C54.044,78.3883 48.1227,74.6236 43.8976,76.7642 C49.1735,69.9842 55.5182,70.2618 60.2184,71.9278 Z M37.61,43.2947 C44.1569,50.4678 44.1656,55.4244 42.2729,60.4835 C41.1614869,63.0891376 39.7498782,65.5562142 38.0667,67.8347 C34.8752,72.5577 30.8469,76.6304 27.0216,80.8238 C24.5522,83.5313 18.9841,88.5275 20.0916,93.9127 C21.221,99.4026 26.6513,100.7467 26.6513,100.7467 C24.4999865,101.043265 22.3094442,100.674162 20.3741,99.689 C15.8492155,97.4860011 12.9845872,92.8874412 13.0020202,87.8548 C13.0621,85.0748 13.3482,82.5819 17.1996,77.5548 C22.1583,71.0818 28.7753,64.3077 32.9039,58.5118 C36.63,53.2806 39.7506,47.5193 37.61,43.2947 Z M45.8731,77.463 C48.1501668,77.4984267 50.3801656,78.1167959 52.3503,79.2591 C54.0604375,80.1450323 55.6771394,81.2007111 57.176,82.4102 C55.7226297,82.689916 54.3174623,83.1787622 53.0043,83.8615 C50.1501,85.3883 47.899,87.1496 41.2943,93.2101 C38.2323,96.0201 33.5143,99.4786 29.7302,99.8054 C25.5938708,100.043217 21.9707889,97.0587188 21.4121,92.9534 C21.175034,91.4235313 21.5364622,89.8611388 22.4213,88.5908 C22.5410785,89.5643911 23.1082829,90.4263352 23.9550447,90.9215332 C24.8018064,91.4167312 25.8311377,91.4884634 26.7384,91.1155 C30.6374,89.6782 37.1944,82.5403 39.861,80.3004 C42.0382,78.4715 43.6339,77.5584 45.8731,77.463 Z M82.1415,57.0596 C82.8469504,59.3001568 83.8811235,61.4235699 85.2102,63.3604 C87.7960268,67.1905235 90.6073916,70.8634432 93.6294,74.3597 C96.2177,77.4517 99.6201,81.1445 99.7867,85.4643 C99.9452,89.5743 96.6384,92.3726 92.6806,92.7436 C91.9555264,92.7809201 91.228599,92.7305556 90.5156,92.5936 C90.0879627,92.5295392 89.6673976,92.4249002 89.2596,92.2811 C89.0038,92.1885 87.9296,91.6494 87.9296,91.6494 C89.2760109,91.7896104 90.525301,90.9323939 90.8789,89.6257 C91.1277,88.5212 90.3908,87.3078 89.3096,85.9164 C87.0004,82.9443 80.2156,74.8427 79.4749,73.7127 C78.1027,71.6196 77.1955,69.6681 77.5022,66.9211 C77.9775,62.6656 82.1415,57.0596 82.1415,57.0596 Z M87.6765,13.3979 C89.827781,13.1013427 92.0182891,13.4704463 93.9536,14.4556 C98.4784573,16.658592 101.343108,21.257086 101.325779,26.2897 C101.2656,29.0697 100.9795,31.5625 97.1281,36.5897 C92.1694,43.0626 85.5524,49.8368 81.4239,55.6326 C77.6977,60.8639 74.5771,66.6252 76.7177,70.8498 C70.1708,63.6767 70.1621,58.72 72.0548,53.661 C73.166191,51.0553514 74.5778011,48.5882723 76.261,46.3098 C79.4525,41.5868 83.4808,37.5141 87.3061,33.3207 C89.7759,30.6131 95.344,25.617 94.2366,20.2318 C93.1075,14.7418 87.6765,13.3979 87.6765,13.3979 Z M23.8129,21.551 C24.240567,21.6150262 24.6611654,21.7196317 25.069,21.8634 C25.3248,21.9561 26.399,22.4952 26.399,22.4952 C25.0525891,22.3549896 23.803299,23.2122061 23.4497,24.5189 C23.2009,25.6233 23.9378,26.8367 25.0191,28.2282 C27.3281,31.2001 34.1129,39.3017 34.8536,40.4317 C36.2258,42.5249 37.133,44.4763 36.8263,47.2234 C36.351,51.4789 32.187,57.0849 32.187,57.0849 C31.4815519,54.8444046 30.447378,52.7210571 29.1183,50.7843 C26.5325302,46.9541355 23.7211628,43.2812125 20.6991,39.785 C18.1108,36.693 14.7084,33.0001 14.5418,28.6803 C14.3833,24.5703 17.6902,21.772 21.6479,21.401 C22.3729736,21.3636799 23.099901,21.4140444 23.8129,21.551 Z M32.3089,14.5295 C35.0525813,15.7958748 37.6322472,17.3908936 39.9912,19.2795 C41.2199,20.262 42.676,21.4317 43.8896,22.4327 C47.0466,25.0366 50.2612,27.6827 53.3733,30.3407 C53.3777,30.3455 56.5169,32.9261 56.5169,32.9261 C60.2845,35.7567 66.2058,39.5215 70.4309,37.3809 C65.155,44.1609 58.8103,43.8833 54.1101,42.2173 C51.7028139,41.2594047 49.4334602,39.9859302 47.3616,38.4303 C44.6678,36.5442 42.217,34.1895 39.6889,32.0918 C37.9572,30.6548 30.2019,23.2832 27.0645,21.357 C24.1312891,19.5445562 20.449986,19.4496701 17.4273,21.1086 C15.4458225,22.1823416 14.0070961,24.0397121 13.4628,26.2267 C13.0770091,24.6812325 13.1205065,23.0597613 13.5886,21.5372 C14.4876319,18.5544099 16.5477498,16.0581042 19.3058,14.6095 C23.4077,12.3085 28.1633,12.6495 32.3089,14.5295 Z M92.9164,21.1911 C93.153466,22.7209687 92.7920378,24.2833612 91.9072,25.5537 C91.7874402,24.580117 91.2202619,23.7181701 90.3735227,23.2229542 C89.5267835,22.7277382 88.4974664,22.6559739 87.5902,23.0289 C83.6916,24.4662 77.1345,31.6043 74.4679,33.8443 C72.2907,35.6732 70.695,36.5863 68.4559,36.6817 C66.1787687,36.6462257 63.948725,36.0277503 61.9786,34.8853 C60.2683189,33.9994384 58.6514806,32.9437915 57.1525,31.7343 C58.6058728,31.4545935 60.0110416,30.9657469 61.3242,30.283 C64.1784,28.7562 66.4295,26.9948 73.0342,20.9344 C76.0962,18.1249 80.8142,14.6659 84.5984,14.3391 C88.7347079,14.1012874 92.3577589,17.0857964 92.9164,21.1911 Z" id="Combined-Shape" fill="#FF6B00" fill-rule="nonzero"></path>
    </g>
</svg>