<?xml version="1.0" encoding="UTF-8"?>
<svg width="216px" height="32px" viewBox="0 0 216 32" version="1.1" xmlns="http://www.w3.org/2000/svg" xmlns:xlink="http://www.w3.org/1999/xlink">
    <title>Logos / 01-Default / 00 Black / Straight / 32 px</title>
    <g id="Logos-/-01-Default-/-00-Black-/-Straight-/-32-px" stroke="none" stroke-width="1" fill="none" fill-rule="evenodd">
        <g id="Logo" fill="#000000" transform="translate(0.079245, 0.080000)">
            <path d="M12.8609439,0.0609409692 L12.877561,25.5952493 C12.7398767,29.0871965 10.1974645,31.1078485 7.96211919,31.6658044 L7.94564176,6.38256211 C7.9496913,3.02425374 10.4032928,0.60310837 12.8609439,0.0609409692" id="middle"></path>
            <path d="M4.91371025,10.6224775 C4.99065148,13.8316405 4.93032732,31.6657903 4.93032732,31.6657903 C3.27308852,31.3173145 0.0153044635,29.4240987 0.0165612169,25.3436053 L8.37835591e-05,5.66205463 C2.11156911,5.61045991 4.83439515,7.30956123 4.91371025,10.6224775" id="left"></path>
            <path d="M15.8993128,21.1043101 C15.8223715,17.8951471 15.8826957,0.0609973568 15.8826957,0.0609973568 C17.5399345,0.409473128 20.7977186,2.30268899 20.7964618,6.38318238 L20.8129392,26.064733 C18.7014539,26.1163278 15.9786279,24.4172264 15.8993128,21.1043101" id="right"></path>
        </g>
        <g id="Group" transform="translate(36.000000, 6.000000)" fill="#000000">
            <polygon id="Fill-4" points="18.7525581 0.363636364 32.005168 0.363636364 32.005168 3.7545709 22.9104705 3.7545709 22.9104705 8.39045115 31.3232016 8.39045115 31.3232016 11.7813857 22.9104705 11.7813857 22.9104705 16.4272473 32.043206 16.4272473 32.043206 19.8181818 18.7525581 19.8181818"></polygon>
            <path d="M46.6785553,0.363636364 L53.5267191,19.8181818 L49.0265233,19.8181818 L47.5520689,15.3821353 L40.3846839,15.3821353 L38.9102295,19.8181818 L34.4100337,19.8181818 L41.2664296,0.363636364 L46.6785553,0.363636364 Z M44.0506971,4.80966373 L43.8952025,4.80966373 L41.4511937,12.1710148 L46.4947059,12.1710148 L44.0506971,4.80966373 Z" id="Combined-Shape"></path>
            <polygon id="Fill-8" points="61.4257272 0.363636364 66.8830743 13.4337517 67.1157872 13.4337517 72.5731344 0.363636364 77.7411873 0.363636364 77.7411873 19.8181818 73.6773802 19.8181818 73.6773802 7.15548677 73.5121996 7.15548677 68.3833884 19.7238128 65.6154731 19.7238128 60.4866619 7.10830224 60.3223939 7.10830224 60.3223939 19.8181818 56.2576742 19.8181818 56.2576742 0.363636364"></polygon>
            <polygon id="Fill-10" points="81.2003971 0.363636364 85.4094325 0.363636364 85.4094325 16.4272473 93.944854 16.4272473 93.944854 19.8181818 81.2003971 19.8181818"></polygon>
            <polygon id="Fill-12" points="97.0399364 0.363636364 110.292546 0.363636364 110.292546 3.7545709 101.197849 3.7545709 101.197849 8.39045115 109.61058 8.39045115 109.61058 11.7813857 101.197849 11.7813857 101.197849 16.4272473 110.330584 16.4272473 110.330584 19.8181818 97.0399364 19.8181818"></polygon>
            <path d="M121.054791,3.43966965 C119.005893,3.43966965 117.874807,4.36084767 117.874807,5.61419431 C117.845641,7.01184372 119.285703,7.63806326 121.006485,8.02831601 L122.784687,8.44670327 C126.225339,9.2063348 128.708989,10.9261696 128.719015,14.1652675 C128.708989,17.7283659 125.867147,20 121.035651,20 C116.231497,20 113.168177,17.8245678 113.061539,13.6143758 L117.111028,13.6143758 C117.246831,15.5620093 118.81267,16.5503471 120.986433,16.5503471 C123.112802,16.5503471 124.485417,15.5819758 124.495443,14.1570994 C124.485417,12.8447611 123.286885,12.2366928 121.131351,11.7248264 L118.976728,11.192086 C115.632687,10.40432 113.573764,8.75981304 113.583789,5.89009393 C113.564649,2.35603757 116.744633,0 121.083956,0 C125.490726,0 128.389988,2.39415528 128.44832,5.86195943 L124.437112,5.86195943 C124.28308,4.3318056 123.055382,3.43966965 121.054791,3.43966965" id="Fill-14"></path>
            <path d="M138.350839,3.43966965 C136.301942,3.43966965 135.170856,4.36084767 135.170856,5.61419431 C135.14169,7.01184372 136.581751,7.63806326 138.302533,8.02831601 L140.080736,8.44670327 C143.521388,9.2063348 146.005038,10.9261696 146.015064,14.1652675 C146.005038,17.7283659 143.163196,20 138.331699,20 C133.527546,20 130.464226,17.8245678 130.357588,13.6143758 L134.407077,13.6143758 C134.54288,15.5620093 136.108719,16.5503471 138.282482,16.5503471 C140.408851,16.5503471 141.781466,15.5819758 141.791492,14.1570994 C141.781466,12.8447611 140.582934,12.2366928 138.427399,11.7248264 L136.272776,11.192086 C132.928735,10.40432 130.869812,8.75981304 130.879838,5.89009393 C130.860698,2.35603757 134.040681,0 138.380005,0 C142.786775,0 145.686037,2.39415528 145.744369,5.86195943 L141.73316,5.86195943 C141.579128,4.3318056 140.351431,3.43966965 138.350839,3.43966965" id="Fill-17"></path>
            <path d="M149.625852,7.61147308 L152.338014,7.61147308 L152.338014,9.65526856 L152.479657,9.65526856 C152.980952,8.28402004 154.187999,7.45454545 155.803965,7.45454545 C157.426089,7.45454545 158.593723,8.29273824 159.056835,9.65526856 L159.181235,9.65526856 C159.714553,8.31515647 161.047232,7.45454545 162.794987,7.45454545 C165.005855,7.45454545 166.557773,8.8805941 166.557773,11.5645547 L166.557773,19.6363636 L163.71259,19.6363636 L163.71259,12.0029556 C163.71259,10.5146341 162.803609,9.84208716 161.659377,9.84208716 C160.287285,9.84208716 159.479302,10.781162 159.479302,12.1362196 L159.479302,19.6363636 L156.696934,19.6363636 L156.696934,11.8858826 C156.696934,10.6478981 155.872939,9.84208716 154.674513,9.84208716 C153.451454,9.84208716 152.463646,10.8446803 152.463646,12.3242836 L152.463646,19.6363636 L149.625852,19.6363636 L149.625852,7.61147308 Z" id="Fill-20"></path>
            <path d="M174.455936,7.45454545 C177.440819,7.45454545 180,9.30103036 180,13.5036747 L180,14.3692532 L171.548002,14.3692532 C171.571583,16.4191119 172.796564,17.6195131 174.644586,17.6195131 C175.877014,17.6195131 176.825226,17.0899973 177.211213,16.0756086 L179.882094,16.3707486 C179.37696,18.4540895 177.433373,19.8181818 174.606111,19.8181818 C170.948543,19.8181818 168.712052,17.4248199 168.712052,13.6673657 C168.712052,9.97191575 170.979571,7.45454545 174.455936,7.45454545 Z M174.494411,9.6519741 C172.789118,9.6519741 171.643568,10.9404213 171.55669,12.4669645 L177.259616,12.4669645 C177.243482,10.8387344 176.137648,9.6519741 174.494411,9.6519741 Z" id="Combined-Shape"></path>
            <path d="M7.99325115,3.43966965 C5.94344251,3.43966965 4.81326788,4.36084767 4.81326788,5.61419431 C4.78410209,7.01184372 6.2241633,7.63806326 7.9449453,8.02831601 L9.72223604,8.44670327 C13.1628886,9.2063348 15.6465385,10.9261696 15.6574757,14.1652675 C15.6465385,17.7283659 12.8056076,20 7.97319967,20 C3.16995753,20 0.106637444,17.8245678 0,13.6143758 L4.04948858,13.6143758 C4.18438039,15.5620093 5.7502191,16.5503471 7.92489382,16.5503471 C10.0512627,16.5503471 11.423878,15.5819758 11.4329923,14.1570994 C11.423878,12.8447611 10.225346,12.2366928 8.06981137,11.7248264 L5.91518814,11.192086 C2.57114726,10.40432 0.512224304,8.75981304 0.522250047,5.89009393 C0.502198562,2.35603757 3.68218183,0 8.02150552,0 C12.4291865,0 15.328449,2.39415528 15.3858692,5.86195943 L11.3755721,5.86195943 C11.2215403,4.3318056 9.99384252,3.43966965 7.99325115,3.43966965" id="Fill-1"></path>
        </g>
    </g>
</svg>